<svg width="13" height="222" viewBox="0 0 13 222" fill="none" xmlns="http://www.w3.org/2000/svg">
<path d="M12 1.29276L2.09972 10.6007C0.419597 12.1803 0.419595 14.8496 2.09972 16.4292L8.90029 22.8229C10.5804 24.4025 10.5804 27.0719 8.90029 28.6515L2.09972 35.0452C0.419596 36.6248 0.419594 39.2941 2.09972 40.8737L8.90028 47.2674C10.5804 48.847 10.5804 51.5163 8.90029 53.0959L2.09972 59.4896C0.419595 61.0692 0.419593 63.7385 2.09972 65.3181L8.90028 71.7118C10.5804 73.2914 10.5804 75.9607 8.90028 77.5403L2.09972 83.934C0.419594 85.5137 0.419592 88.183 2.09972 89.7626L8.90028 96.1563C10.5804 97.7359 10.5804 100.405 8.90028 101.985L2.09972 108.378C0.419593 109.958 0.419591 112.627 2.09972 114.207L8.90028 120.601C10.5804 122.18 10.5804 124.85 8.90028 126.429L2.09972 132.823C0.419592 134.403 0.41959 137.072 2.09972 138.651L8.90028 145.045C10.5804 146.625 10.5804 149.294 8.90028 150.874L2.09972 157.267C0.419591 158.847 0.419589 161.516 2.09971 163.096L8.90028 169.49C10.5804 171.069 10.5804 173.739 8.90028 175.318L2.09972 181.712C0.41959 183.291 0.419588 185.961 2.09971 187.54L8.90028 193.934C10.5804 195.514 10.5804 198.183 8.90028 199.763L2.09971 206.156C0.419589 207.736 0.419587 210.405 2.09971 211.985L12 221.293" stroke="#DFF53A"/>
</svg>
