<svg width="112" height="128" viewBox="0 0 112 128" fill="none" xmlns="http://www.w3.org/2000/svg">
<path d="M18.1063 37.7754L39.9361 43.7425L36.351 17.6765L51.0129 34.4571L57.6114 4.6591L62.8733 29.6985L78.651 0.704983L73.7117 30.1912L96.2665 6.41612L81.878 35.8601L107.776 20.923L86.1291 45.8422L111.428 42.0172L85.8177 58.6178L106.666 66.4872L80.9912 72.242L94.2142 90.6077L72.3844 84.6405L75.9696 110.707L61.3076 93.9259L54.7091 123.724L49.4472 98.6845L33.6695 127.678L38.6088 98.1919L16.054 121.967L30.4425 92.523L4.54427 107.46L26.1914 82.5409L0.892609 86.3659L26.5028 69.7653L5.65495 61.8959L31.3293 56.1411L18.1063 37.7754Z" fill="#082536"/>
</svg>
