<svg width="109" height="112" viewBox="0 0 109 112" fill="none" xmlns="http://www.w3.org/2000/svg">
<path d="M22.797 19.563L33.148 25.2883L32.3288 15.0617L41.7526 23.6625L44.5249 15.4576L51.8849 25.8966L57.9143 20.703L62.3228 31.7211L70.8821 30.1654L71.8074 40.4336L81.8642 42.7033L79.1946 50.9831L89.536 56.8045L83.5935 62.0972L92.9721 70.7682L84.4735 72.4355L91.758 82.9102L81.7284 80.751L86.0404 91.7659L75.6894 86.0406L76.5086 96.2673L67.0848 87.6664L64.3126 95.8714L56.9525 85.4324L50.9231 90.6259L46.5146 79.6078L37.9553 81.1636L37.0301 70.8954L26.9732 68.6257L29.6428 60.3459L19.3015 54.5245L25.2439 49.2317L15.8654 40.5608L24.364 38.8934L17.0794 28.4188L27.109 30.578L22.797 19.563Z" fill="#082536"/>
<path d="M46.0415 46.7265L54.4411 51.7327L63.4556 47.9442L58.4495 56.3438L62.2379 65.3583L53.8383 60.3522L44.8238 64.1406L49.8299 55.7411L46.0415 46.7265Z" fill="#DFF53A"/>
</svg>
