<svg width="291" height="292" viewBox="0 0 291 292" fill="none" xmlns="http://www.w3.org/2000/svg">
<g filter="url(#filter0_d_1_123)">
<path d="M141.5 0.292725L168.575 76.4282L241.556 41.7371L206.864 114.718L283 141.793L206.864 168.868L241.556 241.848L168.575 207.157L141.5 283.293L114.425 207.157L41.4444 241.848L76.1355 168.868L0 141.793L76.1355 114.718L41.4444 41.7371L114.425 76.4282L141.5 0.292725Z" fill="#F88CD7"/>
<path d="M169.004 77.3314L239.445 43.8475L205.961 114.289L205.486 115.289L206.529 115.66L280.015 141.793L206.529 167.925L205.486 168.297L205.961 169.297L239.445 239.738L169.004 206.254L168.004 205.779L167.633 206.822L141.5 280.308L115.367 206.822L114.996 205.779L113.996 206.254L43.5548 239.738L77.0387 169.297L77.5142 168.297L76.4706 167.925L2.98456 141.793L76.4706 115.66L77.5142 115.289L77.0387 114.289L43.5548 43.8475L113.996 77.3314L114.996 77.8069L115.367 76.7633L141.5 3.27728L167.633 76.7633L168.004 77.8069L169.004 77.3314Z" stroke="#082536" stroke-width="2"/>
</g>
<defs>
<filter id="filter0_d_1_123" x="0" y="0.292725" width="291" height="291" filterUnits="userSpaceOnUse" color-interpolation-filters="sRGB">
<feFlood flood-opacity="0" result="BackgroundImageFix"/>
<feColorMatrix in="SourceAlpha" type="matrix" values="0 0 0 0 0 0 0 0 0 0 0 0 0 0 0 0 0 0 127 0" result="hardAlpha"/>
<feOffset dx="8" dy="8"/>
<feComposite in2="hardAlpha" operator="out"/>
<feColorMatrix type="matrix" values="0 0 0 0 0.0313726 0 0 0 0 0.145098 0 0 0 0 0.211765 0 0 0 1 0"/>
<feBlend mode="normal" in2="BackgroundImageFix" result="effect1_dropShadow_1_123"/>
<feBlend mode="normal" in="SourceGraphic" in2="effect1_dropShadow_1_123" result="shape"/>
</filter>
</defs>
</svg>
