<svg width="88" height="88" viewBox="0 0 88 88" fill="none" xmlns="http://www.w3.org/2000/svg">
<path d="M44.1302 1.00003C44.1302 0.723888 43.9064 0.500031 43.6302 0.500031C43.3541 0.500031 43.1302 0.723888 43.1302 1.00003C43.1302 23.1987 22.817 43.1303 1 43.1303C0.723858 43.1303 0.5 43.3541 0.5 43.6303C0.5 43.9064 0.723858 44.1303 1 44.1303C22.817 44.1303 43.1302 64.0618 43.1302 86.2605C43.1302 86.5366 43.3541 86.7605 43.6302 86.7605C43.9064 86.7605 44.1302 86.5366 44.1302 86.2605C44.1302 64.0618 64.4435 44.1303 86.2604 44.1303C86.5366 44.1303 86.7604 43.9064 86.7604 43.6303C86.7604 43.3541 86.5366 43.1303 86.2604 43.1303C64.4435 43.1303 44.1302 23.1987 44.1302 1.00003Z" fill="#F88CD7" stroke="#F88CD7" stroke-linejoin="round"/>
<path d="M43.6299 8.71964C43.6299 27.1271 26.8093 43.6303 8.71924 43.6303C26.8093 43.6303 43.6299 60.1335 43.6299 78.541C43.6299 60.1335 60.4505 43.6303 78.5406 43.6303C60.4505 43.6303 43.6299 27.1271 43.6299 8.71964Z" stroke="#082536" stroke-linejoin="round"/>
</svg>
