<svg width="281" height="191" viewBox="0 0 281 191" fill="none" xmlns="http://www.w3.org/2000/svg">
<path d="M33.199 190.591C28.8393 174.32 27.727 157.35 29.9257 140.649C32.1244 123.949 37.591 107.845 46.0134 93.2566C54.4358 78.6686 65.649 65.8823 79.0129 55.6279C92.3768 45.3734 107.63 37.8516 123.9 33.4918C140.171 29.132 157.142 28.0198 173.842 30.2185C190.543 32.4172 206.647 37.8838 221.235 46.3062C235.823 54.7286 248.609 65.9419 258.864 79.3057C269.118 92.6696 276.64 107.922 281 124.193L231.513 137.453C228.894 127.681 224.377 118.521 218.218 110.494C212.059 102.468 204.38 95.7337 195.619 90.6753C186.857 85.6169 177.185 82.3337 167.155 81.0132C157.125 79.6927 146.933 80.3607 137.161 82.9791C127.388 85.5975 118.228 90.115 110.202 96.2737C102.175 102.432 95.4409 110.112 90.3825 118.873C85.3241 127.635 82.0409 137.306 80.7204 147.337C79.3999 157.367 80.0679 167.559 82.6863 177.331L33.199 190.591Z" fill="#DFF53A"/>
<path d="M56.8115 147.592C59.2783 149.776 60.772 152.265 61.2884 155.021C61.8047 157.778 61.298 160.256 59.754 162.495C58.2077 164.715 55.595 166.128 51.8783 166.739C49.6859 167.036 48.1294 166.916 47.2299 166.394C46.3117 165.874 45.9909 165.093 46.251 164.072C46.5111 163.052 47.602 162.294 49.5282 161.838C51.4732 161.38 52.9006 161.858 53.8083 163.255C54.9038 162.859 55.6622 162.027 56.0978 160.719C56.5356 159.429 56.664 158.1 56.502 156.73C56.3421 155.378 56.0068 154.313 55.496 153.536C54.5209 152.052 53.1595 151.165 51.4141 150.896C49.6476 150.61 47.8111 151.341 45.9188 153.05C44.338 154.817 43.523 157.103 43.5368 159.957C43.5296 162.795 44.1508 165.311 45.3792 167.488C46.7846 169.873 48.7375 171.737 51.2546 173.058C53.7717 174.378 56.5732 174.885 59.6549 174.54C64.1757 173.967 67.5228 172.162 69.6772 169.128C71.8504 166.091 72.7531 162.614 72.4228 158.693C71.7841 154.58 70.0945 151.562 67.3374 149.66C64.5991 147.757 61.0905 147.067 56.8115 147.592Z" fill="#F88CD7"/>
<path d="M46.1581 139.827C51.0916 139.653 67.2532 141.771 71.9086 143.811L73.5744 132.15C68.2425 133.107 52.2066 131.179 44.3638 128.989C45.7463 131.612 46.7517 134.602 46.1581 139.827Z" fill="#F88CD7"/>
<path d="M58.312 111.03C55.053 118.585 60.0414 125.93 67.1804 127.068C78.1189 128.787 78.1033 118.52 72.5821 116.337L72.7747 115.803C82.0465 118.791 81.5492 107.64 78.9286 106.146C78.3188 107.47 76.3775 107.897 74.2244 106.916C71.1651 105.552 62.2689 102.491 62.068 101.617L58.312 111.03ZM60.0518 113.149C60.9167 110.42 70.7872 115.58 70.7872 115.58C69.3366 119.114 58.826 116.935 60.0518 113.149Z" fill="#F88CD7"/>
<path d="M78.6624 96.3641C78.9952 96.2175 80.6701 95.8062 83.6871 95.1303C86.7041 94.4544 88.4287 94.4681 88.8547 95.1182C89.269 95.7832 88.8289 96.2789 87.5048 96.5818C84.7755 96.9549 82.6352 97.0706 81.0575 96.932C80.1328 96.8517 79.3433 96.6614 78.6624 96.3641ZM77.3429 85.1977C77.6316 85.5947 77.7883 86.1283 77.798 86.7867C78.7179 87.056 79.5647 86.9301 80.3445 86.462C81.1243 85.9939 81.6762 85.4178 82.0031 84.7603C82.596 83.6141 82.67 82.6363 82.2488 81.7971C81.8307 80.9845 81.1102 80.463 80.0605 80.2358C79.2741 80.072 78.3039 80.2932 77.0998 80.9321C75.9223 81.5678 74.8117 82.5458 73.7649 83.8393C73.6946 83.9283 73.6242 84.0173 73.5687 84.118C72.4813 85.524 71.6273 86.97 71.0218 88.4677C70.4162 89.9654 70.1669 91.2868 70.2708 92.4054C70.3747 93.5239 70.9146 94.4569 71.9084 95.2426C72.8904 96.0431 73.7876 96.4631 74.6178 96.541C75.4363 96.6337 76.2541 96.6054 77.0626 96.4974C76.8748 99.2654 77.2609 101.186 78.2209 102.258C79.291 103.465 80.7224 103.85 82.5153 103.411C84.2933 102.961 86.0889 101.97 87.8724 100.416C89.6707 98.8726 91.1131 97.0482 92.2229 94.9127C93.3327 92.7772 93.7261 90.8467 93.3797 89.1507C93.0215 87.4696 92.2233 86.2842 90.9967 85.5796C89.7732 84.9015 88.0751 84.8848 85.9291 85.5261C83.7979 86.1792 81.8167 86.734 80.0269 87.1991C78.2371 87.6642 76.7881 87.8202 75.6682 87.682C74.5482 87.5437 74.0408 87.1185 74.149 86.4328C74.2721 85.7588 74.7208 85.2217 75.5248 84.845C76.3171 84.4831 76.9348 84.5858 77.3429 85.1977Z" fill="#F88CD7"/>
<path d="M95.7302 77.7449C96.0902 77.6937 97.814 77.75 100.901 77.9139C103.989 78.0779 105.646 78.5568 105.88 79.2978C106.1 80.0499 105.542 80.4084 104.185 80.3425C101.457 79.9646 99.3646 79.498 97.883 78.9386C97.0143 78.6115 96.3055 78.215 95.7302 77.7449ZM97.4753 66.6371C97.646 67.0973 97.6528 67.6534 97.4843 68.29C98.2973 68.7977 99.1466 68.9051 100.024 68.665C100.901 68.4248 101.588 68.0192 102.08 67.4745C102.961 66.531 103.296 65.6094 103.117 64.6877C102.934 63.7924 102.381 63.0957 101.432 62.5935C100.719 62.2234 99.725 62.1743 98.3931 62.4643C97.0876 62.7584 95.7542 63.4001 94.3971 64.3629C94.3053 64.4296 94.2135 64.4963 94.1328 64.5783C92.7061 65.6384 91.4934 66.8 90.5059 68.0785C89.5184 69.357 88.9215 70.562 88.7195 71.6671C88.5174 72.7722 88.7853 73.8163 89.53 74.8411C90.2594 75.8771 91.0098 76.5238 91.7881 76.823C92.5512 77.1333 93.3463 77.3269 94.1539 77.4412C93.2256 80.0557 93.0788 82.0088 93.7135 83.3005C94.4177 84.7521 95.6922 85.5088 97.5368 85.5708C99.3704 85.6174 101.367 85.1484 103.504 84.1331C105.652 83.1331 107.534 81.766 109.179 80.0095C110.824 78.2531 111.724 76.5005 111.849 74.774C111.958 73.0586 111.509 71.7017 110.519 70.692C109.524 69.7088 107.893 69.2341 105.654 69.272C103.425 69.3253 101.368 69.3245 99.519 69.2889C97.6702 69.2534 96.2329 69.0123 95.1918 68.5768C94.1508 68.1412 93.7771 67.5947 94.0665 66.9637C94.367 66.348 94.9441 65.9521 95.82 65.8065C96.6805 65.672 97.2476 65.9378 97.4753 66.6371Z" fill="#F88CD7"/>
<path d="M109.352 58.3855C111.748 61.8004 115.993 70.6572 116.268 75.4584L127.106 70.7938C123.704 67.1942 120.652 60.7265 118.956 54.1077C117.023 56.504 112.27 58.7558 109.352 58.3855ZM110.027 47.0408C107.464 48.1645 106.262 51.1109 107.339 53.6118C108.408 56.0954 111.359 57.213 113.914 56.0719C116.487 54.9233 117.689 51.977 116.62 49.4934C115.544 46.9925 112.6 45.8923 110.027 47.0408Z" fill="#F88CD7"/>
<path d="M147.896 55.8552C143.721 61.0482 135.196 60.1798 132.624 53.329C132.078 51.411 132.262 50.0119 133.047 49.3671C135.071 47.6282 137.652 52.1317 135.447 54.5577C136.35 56.9483 141.682 56.2524 143.166 55.2286C145.331 53.7329 146.111 50.6664 143.152 48.1748C140.102 46.0267 134.92 46.5987 131.768 48.5842C128.189 50.8599 125.946 55.0618 126.822 59.4954C127.903 66.083 133.869 68.9234 139.806 67.9621C146.212 66.6258 149.091 62.018 147.896 55.8552Z" fill="#F88CD7"/>
<path d="M196.434 60.269C193.431 61.6232 190.549 61.9648 187.823 61.3051C185.097 60.6453 183.045 59.1669 181.636 56.8405C180.245 54.5197 180.028 51.5573 180.995 47.9171C181.623 45.7956 182.372 44.4255 183.217 43.8192C184.067 43.1949 184.911 43.2226 185.735 43.8785C186.56 44.5344 186.803 45.8399 186.429 47.7837C186.049 49.7456 185.027 50.8512 183.381 51.1061C183.293 52.2678 183.741 53.3007 184.755 54.2345C185.752 55.1625 186.911 55.8248 188.228 56.2391C189.526 56.6478 190.635 56.7786 191.553 56.6316C193.307 56.3509 194.673 55.4728 195.635 53.9915C196.621 52.4978 196.707 50.5229 195.924 48.0962C194.961 45.9297 193.211 44.2489 190.602 43.0909C188.017 41.9205 185.467 41.4551 182.977 41.6824C180.226 41.9859 177.725 43.0027 175.488 44.7567C173.251 46.5106 171.64 48.858 170.691 51.8102C169.36 56.1682 169.633 59.9609 171.517 63.1704C173.395 66.3979 176.196 68.647 179.907 69.954C183.921 71.0585 187.366 70.7553 190.231 69.0206C193.091 67.304 195.158 64.3868 196.434 60.269Z" fill="#F88CD7"/>
<path d="M215.802 65.0813C209.299 60.0402 200.942 63.0381 198.058 69.6672C193.665 79.831 203.611 82.3776 207.102 77.5756L207.571 77.8954C202.365 86.1286 213.287 88.4294 215.387 86.2644C214.257 85.3434 214.328 83.3571 215.816 81.517C217.899 78.8946 223.084 71.0437 223.98 71.0673L215.802 65.0813ZM213.316 66.2372C215.743 67.7557 208.283 76.0265 208.283 76.0265C205.223 73.74 209.956 64.1056 213.316 66.2372Z" fill="#F88CD7"/>
<path d="M237.342 86.2218L231.118 77.9612C227.972 81.3261 220.632 86.9501 215.393 89.6427C215.008 89.791 214.622 89.9393 214.248 90.1027L221.348 99.5262C227.429 91.1329 232.872 89.5896 233.62 91.2745C233.917 91.9508 233.272 92.9808 232.016 94.6134C235.806 100.115 240.506 100.006 242.137 96.6713C244.331 92.1059 239.364 85.8582 232.488 88.9551L232.261 88.6531C233.94 87.2691 235.777 86.8794 237.342 86.2218Z" fill="#F88CD7"/>
<path d="M239.008 110.287C238.965 110.648 238.467 112.3 237.514 115.241C236.562 118.182 235.673 119.66 234.896 119.696C234.113 119.715 233.91 119.084 234.323 117.79C235.39 115.25 236.379 113.348 237.3 112.061C237.84 111.305 238.405 110.722 239.008 110.287ZM249.293 114.83C248.804 114.877 248.265 114.741 247.693 114.414C246.994 115.069 246.671 115.862 246.678 116.772C246.684 117.681 246.899 118.449 247.299 119.065C247.985 120.159 248.789 120.72 249.726 120.784C250.638 120.837 251.453 120.482 252.183 119.694C252.724 119.1 253.027 118.152 253.089 116.791C253.141 115.453 252.864 114 252.282 112.441C252.241 112.335 252.201 112.229 252.142 112.13C251.485 110.479 250.674 109.008 249.692 107.725C248.711 106.442 247.7 105.555 246.684 105.075C245.668 104.596 244.59 104.586 243.408 105.042C242.22 105.481 241.402 106.04 240.912 106.715C240.416 107.372 240.025 108.091 239.706 108.842C237.419 107.272 235.569 106.628 234.158 106.91C232.574 107.217 231.515 108.254 230.98 110.02C230.464 111.78 230.403 113.83 230.835 116.156C231.249 118.49 232.086 120.659 233.36 122.701C234.634 124.743 236.097 126.063 237.733 126.628C239.363 127.174 240.789 127.09 242.02 126.392C243.226 125.683 244.104 124.23 244.643 122.056C245.165 119.889 245.695 117.901 246.205 116.123C246.714 114.346 247.317 113.019 248.006 112.125C248.694 111.231 249.319 111.01 249.854 111.452C250.372 111.901 250.606 112.561 250.521 113.444C250.43 114.311 250.027 114.79 249.293 114.83Z" fill="#F88CD7"/>
</svg>
