<svg width="24" height="24" viewBox="0 0 24 24" fill="none" xmlns="http://www.w3.org/2000/svg">
<path d="M0.495234 4.38731C1.68834 4.79016 2.63873 5.73984 3.04252 6.93244C3.13008 7.22095 3.39825 7.43091 3.71541 7.43091C4.0313 7.43091 4.29853 7.2225 4.38727 6.93567C4.79011 5.74261 5.73975 4.79227 6.93234 4.38839C7.22091 4.30083 7.43086 4.03266 7.43086 3.7155C7.43086 3.39961 7.22245 3.13238 6.93563 3.04364C5.74256 2.6408 4.79222 1.69116 4.38834 0.498562C4.30078 0.209953 4.03261 0 3.71545 0C3.39956 0 3.13233 0.208406 3.04364 0.495234C2.64084 1.68825 1.69116 2.63864 0.498516 3.04252C0.209953 3.13008 0 3.39825 0 3.71545C0 4.03134 0.208453 4.29858 0.495234 4.38731Z" fill="#082536"/>
<path d="M23.5048 19.6127C22.3117 19.2098 21.3613 18.2602 20.9575 17.0676C20.8699 16.779 20.6018 16.5691 20.2846 16.5691C19.9687 16.5691 19.7015 16.7775 19.6127 17.0643C19.2099 18.2574 18.2603 19.2077 17.0677 19.6116C16.7791 19.6992 16.5692 19.9673 16.5692 20.2845C16.5692 20.6004 16.7776 20.8676 17.0644 20.9564C18.2574 21.3592 19.2078 22.3088 19.6117 23.5014C19.6992 23.79 19.9674 24 20.2846 24C20.6004 24 20.8677 23.7915 20.9564 23.5047C21.3592 22.3117 22.3089 21.3613 23.5015 20.9574C23.7901 20.8699 24 20.6017 24 20.2845C24 19.9687 23.7916 19.7014 23.5048 19.6127Z" fill="#082536"/>
<path d="M14.4819 15.8518C14.4819 15.8518 14.0088 15.6939 13.3516 15.4751C11.0849 14.7196 9.28045 12.9151 8.52492 10.6486C8.30606 9.99123 8.14819 9.51812 8.14819 9.51812C8.05247 9.2311 7.78378 9.03751 7.4812 9.03751C7.17863 9.03751 6.90998 9.23115 6.81422 9.51816C6.81422 9.51816 6.65644 9.99127 6.43762 10.6484C5.68205 12.9151 3.87764 14.7196 1.611 15.4751C0.953719 15.6939 0.480609 15.8518 0.480609 15.8518C0.193594 15.9475 0 16.2162 0 16.5188C0 16.8214 0.193641 17.09 0.480656 17.1858C0.480656 17.1858 0.953766 17.3436 1.61081 17.5624C3.87759 18.318 5.68205 20.1224 6.43758 22.389C6.65644 23.0462 6.81422 23.5193 6.81422 23.5193C6.90998 23.8064 7.17858 24 7.4812 24H7.48125C7.78383 24 8.05252 23.8064 8.14823 23.5194C8.14823 23.5194 8.30611 23.0463 8.52492 22.3891C9.2805 20.1224 11.0849 18.318 13.3515 17.5624C14.0088 17.3436 14.4819 17.1858 14.4819 17.1858C14.7689 17.09 14.9625 16.8214 14.9625 16.5188C14.9625 16.2162 14.7689 15.9475 14.4819 15.8518Z" fill="#082536"/>
<path d="M18.0252 11.9496C18.3413 11.9496 18.6087 11.7409 18.6972 11.4538C19.4537 9.20006 21.2476 7.4055 23.5008 6.648C23.7897 6.56067 24 6.29231 24 5.97487C24 5.65875 23.7913 5.39138 23.5042 5.30283C21.2505 4.54636 19.4559 2.7525 18.6984 0.499219C18.611 0.210281 18.3427 0 18.0252 0C17.7091 0 17.4417 0.208734 17.3531 0.495844C16.5967 2.74955 14.8028 4.54416 12.5495 5.30166C12.2606 5.38898 12.0504 5.65734 12.0504 5.97478C12.0504 6.29091 12.2591 6.55828 12.5462 6.64683C14.7998 7.40325 16.5943 9.19697 17.3519 11.45C17.4392 11.7392 17.7076 11.9496 18.0252 11.9496Z" fill="#082536"/>
</svg>
